#!OML:ASF H:\GeneralSubjects\Female5\Project 1\Capture day 1\Session 1\Female5.ASF
:FULLY-SPECIFIED
:DEGREES
476
root -10.6721 15.9704 3.18315 352.82 -105.147 -343.154
lowerback 8.50908 3.05887 3.46007
upperback -10.8029 4.59962 1.39523
thorax -16.8214 1.65634 -1.33521
lowerneck -19.1041 3.30352 4.56538
upperneck 34.7245 4.23382 -5.05934
head 15.7015 1.28854 -2.26868
rclavicle 4.4975e-014 4.85035e-014
rhumerus -47.0171 12.8193 -82.189
rradius 40.7236
rwrist -10.2267
rhand -24.1865 -23.1179
rfingers 7.12502
rthumb 2.29723 -53.0853
lclavicle 4.4975e-014 4.85035e-014
lhumerus -43.454 -7.84698 86.5353
lradius 33.5279
lwrist -10.3459
lhand -25.9992 30.06
lfingers 7.12502
lthumb 0.546556 -299.961
rfemur 14.2829 42.0832 44.723
rtibia -13.3784
rfoot -43.8735 -41.4967
rtoes 17.008
lfemur -27.8415 -22.4344 -8.17064
ltibia 8.4707
lfoot -31.2427 -1.76379
ltoes -4.73168
477
root -10.6637 15.9714 3.17697 352.585 -105.082 -342.95
lowerback 8.5583 3.0591 3.38706
upperback -10.8201 4.60174 1.48036
thorax -16.8905 1.67075 -1.20197
lowerneck -19.021 3.24976 4.51382
upperneck 34.6661 4.18929 -5.10275
head 15.6498 1.25815 -2.28522
rclavicle -2.48729e-014 -2.66371e-014
rhumerus -46.9503 13.0233 -82.1382
rradius 40.9871
rwrist -10.4281
rhand -23.4357 -25.2893
rfingers 7.12502
rthumb 3.02237 -55.2477
lclavicle -2.48729e-014 -2.66371e-014
lhumerus -43.3784 -6.42576 85.2747
lradius 32.0788
lwrist -10.9524
lhand -25.9302 30.4514
lfingers 7.12502
lthumb 0.613146 -299.57
rfemur 14.1869 42.0201 44.7571
rtibia -13.268
rfoot -43.8276 -41.4458
rtoes 17.279
lfemur -27.6819 -23.0063 -7.89144
ltibia 8.02375
lfoot -31.8352 -2.53774
ltoes -3.63113
478
root -10.6597 15.972 3.17184 352.7 -105.006 -343.089
lowerback 8.52468 3.0615 3.20695
upperback -10.833 4.58046 1.53914
thorax -16.9055 1.6875 -1.02939
lowerneck -19.0273 3.19729 4.43578
upperneck 34.7357 4.13548 -5.1022
head 15.6791 1.2224 -2.28426
rclavicle 6.85807e-014 4.13472e-014
rhumerus -46.9601 13.4684 -82.3855
rradius 41.9141
rwrist -11.5826
rhand -22.3332 -30.7527
rfingers 7.12502
rthumb 4.08705 -60.6933
lclavicle 6.85807e-014 4.13472e-014
lhumerus -43.367 -5.12891 84.0321
lradius 30.7447
lwrist -11.0089
lhand -24.8239 32.2193
lfingers 7.12502
lthumb 1.68167 -297.808
rfemur 14.1093 41.9621 44.6864
rtibia -13.166
rfoot -43.8225 -41.3434
rtoes 17.4431
lfemur -27.5716 -23.5089 -7.78198
ltibia 7.73546
lfoot -32.3095 -3.58599
ltoes -2.65555
479
root -10.6566 15.9717 3.16823 353.297 -104.856 -343.705
lowerback 8.37848 3.05888 2.93195
upperback -10.7901 4.52502 1.54305
thorax -16.7773 1.70187 -0.852265
lowerneck -19.302 3.14468 4.18772
upperneck 34.9727 4.07493 -4.92368
head 15.8435 1.1819 -2.18214
rclavicle -3.27995e-014 7.55382e-015
rhumerus -46.7769 13.5988 -82.3263
rradius 40.632
rwrist -11.2482
rhand -23.5281 -26.9486
rfingers 7.12502
rthumb 2.93311 -56.9081
lclavicle -3.27995e-014 7.55382e-015
lhumerus -43.1939 -3.80226 82.6849
lradius 29.3659
lwrist -11.3192
lhand -23.6257 33.9887
lfingers 7.12502
lthumb 2.83887 -296.05
rfemur 14.0598 41.8514 44.466
rtibia -13.1484
rfoot -43.7929 -41.3223
rtoes 17.2528
lfemur -27.4447 -24.1062 -7.86532
ltibia 7.39894
lfoot -32.7976 -3.62265
ltoes -2.34755
480
root -10.6507 15.9709 3.16367 353.117 -104.707 -343.524
lowerback 8.22309 3.05262 2.8865
upperback -10.7225 4.50647 1.58066
thorax -16.5965 1.70909 -0.771234
lowerneck -19.5946 3.09687 3.95828
upperneck 35.2064 4.00318 -4.70992
head 16.0111 1.14516 -2.06918
rclavicle -1.53561e-014 -1.21259e-014
rhumerus -46.5202 13.6951 -82.3118
rradius 39.0997
rwrist -10.9526
rhand -24.7872 -22.9003
rfingers 7.12502
rthumb 1.71707 -52.8731
lclavicle -1.53561e-014 -1.21259e-014
lhumerus -42.8813 -2.14505 80.9945
lradius 28.1067
lwrist -12.823
lhand -25.1078 33.4999
lfingers 7.12502
lthumb 1.40749 -296.525
rfemur 13.9695 41.7139 44.46
rtibia -13.0984
rfoot -43.6382 -41.5293
rtoes 16.7914
lfemur -27.3388 -24.7389 -7.6667
ltibia 6.99121
lfoot -33.2537 -3.34937
ltoes -1.9246
481
root -10.6462 15.9716 3.15906 352.311 -104.581 -342.7
lowerback 8.10019 3.04189 3.00479
upperback -10.6954 4.51142 1.64587
thorax -16.4783 1.70588 -0.7568
lowerneck -19.6312 3.0599 3.95003
upperneck 35.2978 3.92882 -4.66157
head 16.0589 1.11782 -2.06405
rclavicle 3.39922e-014 4.49253e-014
rhumerus -46.3035 13.7745 -82.4262
rradius 37.9306
rwrist -10.8547
rhand -25.5982 -21.215
rfingers 7.12502
rthumb 0.933848 -51.1928
lclavicle 3.39922e-014 4.49253e-014
lhumerus -42.8308 -0.621999 79.3577
lradius 27.2395
lwrist -14.1857
lhand -27.7324 32.4277
lfingers 7.12502
lthumb -1.12742 -297.596
rfemur 13.8573 41.5709 44.5965
rtibia -13.023
rfoot -43.6254 -41.5624
rtoes 16.7975
lfemur -27.2744 -25.3358 -7.2723
ltibia 6.64404
lfoot -33.7163 -3.61541
ltoes -1.52003
482
root -10.6463 15.9744 3.15567 352.147 -104.404 -342.592
lowerback 8.10285 3.03025 2.9591
upperback -10.7278 4.48824 1.6468
thorax -16.5252 1.69885 -0.726016
lowerneck -19.5088 2.99909 3.92095
upperneck 35.3614 3.81859 -4.59592
head 16.0513 1.07547 -2.05464
rclavicle 1.2424e-015 1.35174e-014
rhumerus -46.3288 13.8724 -82.6362
rradius 37.2649
rwrist -10.6056
rhand -25.5507 -22.2339
rfingers 7.12502
rthumb 0.979715 -52.2114
lclavicle 1.2424e-015 1.35174e-014
lhumerus -43.0099 0.610934 77.9423
lradius 26.5016
lwrist -14.8566
lhand -27.7102 32.798
lfingers 7.12502
lthumb -1.10607 -297.225
rfemur 13.8578 41.3789 44.5573
rtibia -13.0269
rfoot -43.7672 -41.3168
rtoes 17.3041
lfemur -27.0941 -26.0475 -7.15128
ltibia 6.26312
lfoot -34.3077 -3.61728
ltoes -1.46041
